<svg width="41" height="64" viewBox="0 0 41 64" fill="none" xmlns="http://www.w3.org/2000/svg">
<path d="M33.8095 63.1111H6.7619C4.96853 63.1111 3.24862 62.3987 1.98052 61.1306C0.712413 59.8625 0 58.1425 0 56.3492V6.7619C0 4.96853 0.712413 3.24862 1.98052 1.98051C3.24862 0.71241 4.96853 0 6.7619 0H33.8095C35.6029 0 37.3228 0.71241 38.5909 1.98051C39.859 3.24862 40.5714 4.96853 40.5714 6.7619V56.3492C40.5714 58.1425 39.859 59.8625 38.5909 61.1306C37.3228 62.3987 35.6029 63.1111 33.8095 63.1111ZM36.0635 6.7619C36.0635 6.16411 35.826 5.59081 35.4033 5.16811C34.9806 4.7454 34.4073 4.50793 33.8095 4.50793H6.7619C6.16411 4.50793 5.59081 4.7454 5.16811 5.16811C4.74541 5.59081 4.50794 6.16411 4.50794 6.7619V56.3492C4.50794 56.947 4.74541 57.5203 5.16811 57.943C5.59081 58.3657 6.16411 58.6031 6.7619 58.6031H33.8095C34.4073 58.6031 34.9806 58.3657 35.4033 57.943C35.826 57.5203 36.0635 56.947 36.0635 56.3492V6.7619ZM23.6667 50.7143C23.6667 50.0456 23.4684 49.3919 23.0969 48.8359C22.7254 48.2799 22.1973 47.8466 21.5795 47.5907C20.9618 47.3348 20.282 47.2678 19.6261 47.3983C18.9703 47.5287 18.3678 47.8507 17.895 48.3236C17.4222 48.7964 17.1002 49.3988 16.9697 50.0547C16.8393 50.7105 16.9062 51.3903 17.1621 52.0081C17.418 52.6259 17.8514 53.1539 18.4074 53.5254C18.9633 53.8969 19.617 54.0952 20.2857 54.0952C21.1824 54.0952 22.0423 53.739 22.6764 53.105C23.3105 52.4709 23.6667 51.6109 23.6667 50.7143Z" fill="black" fill-opacity="0.75" style="fill:black;fill-opacity:0.75;"/>
</svg>
